<?xml version="1.0" standalone="no"?>
<!DOCTYPE svg PUBLIC "-//W3C//DTD SVG 20010904//EN"
 "http://www.w3.org/TR/2001/REC-SVG-20010904/DTD/svg10.dtd">
<svg version="1.0" xmlns="http://www.w3.org/2000/svg"
 width="1000.000000pt" height="982.000000pt" viewBox="0 0 1000.000000 982.000000"
 preserveAspectRatio="xMidYMid meet">

<g transform="translate(0.000000,982.000000) scale(0.100000,-0.100000)"
fill="#000000" stroke="none">
<path d="M631 9655 c196 -214 195 -222 -35 -187 -77 12 -233 35 -346 52 -113
17 -215 33 -227 35 -18 4 -23 1 -23 -14 0 -21 15 -25 260 -60 538 -78 490 -67
506 -120 l13 -43 -187 -227 c-499 -605 -556 -670 -575 -659 -17 9 -18 1 -16
-137 l1 -146 63 -28 c72 -33 52 -9 415 -506 129 -176 285 -389 347 -473 63
-85 117 -161 120 -169 5 -14 -5 -15 -78 -9 -46 3 -219 13 -384 21 -165 8 -342
17 -392 20 -80 5 -93 4 -93 -9 0 -11 10 -16 33 -16 79 0 948 -48 952 -52 7 -9
434 -592 462 -629 31 -43 36 -79 12 -79 -5 0 -102 39 -217 86 -526 219 -1227
504 -1237 504 -3 0 -5 -19 -3 -42 l3 -42 290 -117 c160 -64 416 -168 570 -231
588 -241 566 -231 563 -253 -3 -17 -17 -23 -88 -37 -47 -9 -101 -19 -121 -22
-21 -3 -104 -17 -186 -31 -81 -15 -209 -37 -283 -49 l-135 -23 -134 116 c-74
64 -211 182 -305 264 -94 81 -172 143 -174 137 -6 -17 4 -26 294 -277 151
-130 274 -239 274 -243 0 -3 -123 -28 -272 -55 -302 -53 -298 -52 -298 -69 0
-9 91 4 304 43 l304 54 214 -184 c446 -385 442 -381 405 -395 -10 -4 -612 93
-1195 191 -32 6 -32 5 -32 -33 l0 -38 127 -22 c71 -12 333 -55 583 -97 559
-92 512 -82 508 -107 -2 -16 -71 -48 -348 -165 -190 -79 -357 -149 -373 -155
-24 -9 -46 0 -210 88 -100 53 -206 110 -235 127 -40 22 -52 26 -52 14 0 -10
61 -49 163 -103 89 -48 188 -101 220 -119 l57 -32 -220 -93 c-134 -56 -220
-98 -220 -106 0 -8 2 -14 4 -14 2 0 108 45 237 99 l233 99 105 -56 c58 -31
221 -118 361 -192 195 -104 256 -141 258 -157 4 -24 -9 -25 -353 -43 -384 -20
-730 -40 -787 -46 l-58 -6 0 -39 0 -40 57 5 c93 9 332 25 553 36 113 6 275 15
360 20 230 15 242 14 238 -10 -3 -23 -621 -470 -649 -470 -9 0 -136 34 -283
75 -147 41 -269 75 -272 75 -2 0 -4 -6 -4 -12 0 -8 98 -40 262 -86 145 -40
265 -76 268 -78 3 -3 -2 -10 -10 -14 -78 -47 -516 -379 -518 -394 -4 -21 -23
-34 335 228 120 88 225 161 234 163 17 5 738 -191 772 -209 52 -28 21 -40
-498 -188 -281 -80 -585 -168 -678 -195 l-167 -49 0 -38 c0 -21 2 -38 5 -38 3
0 182 51 397 114 496 144 964 276 978 276 31 0 18 -35 -37 -97 -232 -265 -433
-490 -449 -504 -17 -14 -38 -15 -169 -8 -82 5 -278 16 -434 24 -156 9 -286 13
-289 10 -19 -19 46 -25 478 -45 135 -6 275 -15 312 -18 l66 -7 -56 -66 c-122
-141 -639 -738 -700 -807 -37 -42 -72 -72 -83 -72 -18 0 -19 -10 -18 -174 l0
-174 28 -39 c16 -21 114 -148 219 -283 l191 -244 -25 -27 c-30 -31 -16 -49 18
-25 12 9 25 16 29 16 3 0 40 -45 83 -99 l76 -100 -22 -25 c-23 -25 -26 -25
-293 -40 -148 -9 -278 -16 -287 -16 -10 0 -18 -7 -18 -15 0 -19 15 -19 323 1
242 17 248 17 262 -2 17 -23 38 -1 -333 -337 l-252 -228 0 -50 0 -50 202 183
c460 418 450 410 468 393 18 -16 16 -48 -33 -418 -21 -159 -22 -178 -8 -175
17 3 16 -3 66 383 21 166 27 192 46 207 11 10 27 18 34 18 12 0 324 -257 598
-493 125 -107 141 -118 172 -115 l34 3 -53 45 c-29 25 -200 168 -380 319 -179
151 -326 280 -326 285 0 6 28 41 63 78 62 67 63 68 227 132 91 36 345 137 564
225 220 89 401 159 403 157 3 -2 -32 -134 -76 -293 -44 -158 -114 -416 -156
-573 -85 -312 -69 -278 -169 -362 -20 -17 -15 -17 109 -18 l130 0 305 208
c168 115 390 266 495 338 104 71 193 131 198 133 5 2 6 -28 3 -65 -3 -38 -11
-189 -17 -337 -11 -237 -10 -291 5 -276 2 2 12 159 21 349 11 220 22 349 29
356 28 29 603 418 622 422 12 2 24 -1 28 -6 3 -6 -73 -194 -170 -419 -97 -224
-204 -473 -239 -553 l-62 -145 35 -3 c19 -2 38 0 42 5 4 4 110 246 235 538
126 292 231 533 235 538 18 20 41 -23 55 -105 54 -312 105 -620 105 -633 0 -9
-70 -90 -156 -181 -107 -112 -150 -164 -137 -164 12 0 73 59 158 150 76 83
140 148 142 146 4 -4 53 -271 53 -288 0 -5 6 -8 14 -8 10 0 8 33 -15 162 l-29
161 45 51 c78 89 470 499 480 503 34 10 31 -20 -46 -432 -43 -231 -78 -426
-79 -432 0 -8 13 -13 34 -13 41 0 37 -10 71 180 14 80 43 237 65 350 21 113
42 226 45 252 9 62 24 83 47 66 9 -7 79 -166 157 -352 l141 -339 -34 -56 c-54
-91 -59 -101 -43 -101 7 0 29 27 48 60 18 33 37 60 40 60 3 0 17 -27 30 -60
13 -33 29 -60 36 -60 9 0 7 15 -8 53 -12 28 -25 64 -31 78 -8 23 10 59 163
320 95 162 179 306 188 321 22 39 61 39 61 1 0 -21 29 -757 30 -770 0 -2 16
-3 35 -3 l35 0 0 53 c0 28 -7 207 -15 397 -8 199 -10 349 -5 354 5 5 15 6 22
4 7 -3 109 -144 227 -313 l214 -308 -30 -94 c-23 -69 -28 -93 -18 -93 8 0 23
29 35 68 13 37 26 71 30 75 4 5 32 -25 61 -67 29 -42 59 -76 66 -76 17 0 17 0
-59 107 l-58 82 114 352 c63 193 119 356 124 361 31 31 41 1 235 -732 l44
-165 38 -3 c37 -3 37 -3 31 25 -4 15 -59 221 -122 456 -63 236 -114 435 -114
443 0 42 57 -1 315 -242 232 -216 275 -260 275 -284 0 -31 -27 -306 -36 -362
-5 -31 -3 -38 10 -38 9 0 16 7 16 17 0 32 32 358 36 372 3 10 24 -4 67 -45
151 -146 378 -345 390 -342 8 2 -91 99 -220 217 l-234 213 6 57 c3 31 14 162
25 291 31 357 37 402 51 411 8 5 17 9 20 9 4 0 430 -803 589 -1112 44 -87 45
-88 83 -88 20 0 37 3 37 6 0 5 -453 874 -602 1153 -30 57 -36 76 -26 83 7 4
20 6 30 4 19 -4 637 -363 655 -380 7 -6 33 -183 65 -438 39 -319 56 -428 66
-428 9 0 11 10 7 33 -3 17 -21 165 -41 327 -19 162 -41 337 -48 388 -7 50 -9
92 -5 92 9 0 1012 -584 1048 -610 13 -9 39 -52 57 -96 36 -86 37 -84 -22 -120
-15 -9 20 -12 155 -13 171 -1 174 -1 157 18 -14 15 -15 24 -6 40 6 12 14 21
19 21 4 0 95 -18 202 -40 132 -28 212 -40 253 -38 54 3 36 8 -193 55 -139 28
-254 53 -256 55 -2 2 -6 19 -10 38 l-6 36 288 279 c158 153 329 319 380 369
l92 90 33 -16 c31 -14 34 -19 54 -119 l21 -104 1 225 1 225 -77 41 c-89 47
-53 -2 -407 551 -115 181 -240 375 -277 432 -38 57 -67 106 -64 108 3 3 56 0
118 -6 62 -6 235 -22 383 -36 149 -14 282 -27 297 -30 19 -3 28 0 28 9 0 10
-21 16 -72 21 -123 11 -475 45 -633 60 -94 10 -152 20 -157 28 -4 6 -99 154
-212 327 -165 255 -202 318 -195 333 6 9 13 16 17 13 4 -2 162 -74 352 -159
190 -85 464 -210 610 -277 146 -67 271 -124 278 -127 8 -4 12 7 12 36 l0 40
-77 37 c-100 46 -894 406 -1035 469 -60 26 -108 51 -108 54 0 32 31 40 290 70
146 17 323 38 394 47 l129 16 96 -94 c53 -51 144 -140 204 -198 59 -57 107
-98 107 -89 0 8 -83 97 -184 198 -101 100 -179 184 -172 187 12 4 320 44 342
44 8 0 14 7 14 16 0 12 -7 14 -27 10 -16 -3 -106 -15 -202 -27 l-174 -21 -181
179 c-100 99 -225 222 -278 273 -88 84 -113 120 -90 133 6 4 481 -90 840 -166
l112 -23 0 37 c0 28 -5 39 -18 43 -18 6 -898 186 -908 186 -3 0 -4 10 -2 22 4
26 -23 15 436 179 l333 118 73 -44 c80 -49 86 -51 86 -32 0 6 -27 28 -59 47
-33 19 -58 37 -56 41 2 3 29 14 59 24 32 11 56 25 56 33 0 8 -6 12 -12 10 -7
-3 -42 -15 -78 -27 l-65 -23 -290 177 c-385 235 -397 243 -393 263 3 15 28 18
233 23 127 4 314 7 418 8 l187 1 0 41 0 41 -272 -6 c-150 -4 -338 -7 -418 -9
-220 -3 -224 -8 201 259 l352 222 69 -24 c61 -20 69 -21 66 -7 -2 10 -22 23
-51 32 -26 8 -47 17 -47 20 0 3 23 19 50 36 28 16 50 35 50 42 0 19 -4 17 -75
-28 l-65 -41 -382 128 c-211 70 -386 132 -390 138 -4 6 -8 16 -8 21 0 6 207
62 460 125 l460 115 0 37 c0 21 -2 38 -4 38 -12 0 -862 -209 -918 -226 -11 -3
-19 3 -23 17 -6 19 36 64 291 320 293 293 299 298 334 294 19 -2 89 -9 155
-15 66 -6 130 -13 143 -16 15 -3 22 0 22 10 0 16 -21 20 -203 37 l-129 12 166
166 c103 103 166 174 166 186 0 14 -56 -36 -184 -164 l-184 -184 -224 21
c-123 12 -308 29 -411 39 -266 24 -267 21 26 171 127 66 400 204 605 306 l372
186 0 46 0 46 -616 -312 c-339 -171 -622 -309 -630 -306 -8 3 -14 13 -14 21 0
13 414 688 440 718 8 10 101 23 485 72 346 44 335 42 335 60 0 11 -7 14 -22
10 -13 -2 -111 -16 -218 -30 -306 -39 -431 -55 -490 -64 -30 -5 -57 -7 -59 -6
-3 3 136 231 585 960 96 156 151 236 172 250 l31 20 1 165 0 165 -405 406
-406 406 7 40 c3 22 9 46 13 52 4 6 50 22 102 35 l94 23 -254 -1 -254 -1 -34
-90 c-19 -49 -42 -97 -51 -106 -27 -26 -1161 -783 -1165 -778 -2 2 7 108 19
234 13 127 32 331 44 455 11 124 22 240 25 258 2 22 0 32 -10 32 -16 0 -21
-26 -40 -250 -9 -96 -24 -267 -35 -380 -11 -113 -22 -239 -26 -280 -4 -41 -11
-83 -15 -92 -15 -28 -706 -488 -724 -482 -27 11 -65 -81 357 864 127 283 241
539 254 568 l24 52 -46 0 -45 0 -36 -77 c-29 -65 -259 -581 -536 -1207 -84
-188 -97 -191 -121 -31 -8 55 -25 172 -36 260 -12 88 -30 222 -41 298 -29 209
-35 186 87 318 347 373 405 439 386 439 -12 0 -104 -92 -258 -259 -137 -149
-242 -254 -245 -247 -3 6 -12 54 -18 106 -7 52 -21 159 -32 237 -10 79 -19
147 -19 153 0 5 -7 10 -15 10 -8 0 -15 -3 -15 -7 0 -5 16 -123 35 -263 19
-140 35 -262 35 -270 0 -14 -570 -642 -587 -647 -5 -2 -14 1 -21 6 -13 8 -5
54 157 899 28 144 51 267 51 272 0 6 -18 10 -39 10 -29 0 -41 -5 -45 -17 -5
-19 -216 -1126 -216 -1137 0 -3 -10 -6 -23 -6 -19 0 -27 12 -50 73 -15 39 -83
220 -152 401 -69 180 -125 333 -125 338 0 9 118 225 172 316 19 31 19 32 1 32
-13 0 -42 -43 -102 -151 -46 -83 -87 -147 -92 -142 -4 4 -32 71 -61 148 -37
97 -59 141 -71 143 -16 3 -16 0 2 -45 10 -26 40 -104 67 -172 l48 -124 -20
-36 c-379 -682 -403 -723 -427 -719 -22 3 -22 7 -39 408 -9 223 -20 469 -23
548 l-7 142 -41 0 -40 0 6 -167 c4 -93 14 -340 24 -550 9 -211 14 -385 11
-389 -4 -3 -15 -3 -25 0 -19 7 -486 687 -491 717 -2 9 21 101 51 204 45 151
52 186 39 183 -12 -2 -30 -51 -66 -176 -28 -94 -53 -172 -56 -172 -3 0 -59 79
-124 175 -66 96 -126 175 -133 175 -7 0 -13 -3 -13 -6 0 -3 59 -91 131 -196
l131 -191 -11 -41 c-6 -23 -60 -209 -119 -415 -77 -266 -114 -376 -126 -383
-27 -15 1 -104 -226 714 -77 279 -140 509 -140 513 0 3 -20 5 -45 5 -25 0 -45
-2 -45 -4 0 -3 22 -83 50 -178 161 -564 298 -1074 291 -1081 -5 -5 -16 -7 -24
-5 -9 1 -116 96 -239 209 -123 113 -262 241 -310 285 -103 93 -95 47 -73 414
19 320 19 360 0 360 -12 0 -15 -13 -15 -57 -1 -89 -28 -594 -33 -599 -4 -4
-94 77 -486 435 -238 217 -245 224 -266 219 -9 -2 147 -150 371 -353 l385
-350 -6 -70 c-3 -38 -10 -169 -15 -290 -21 -466 -23 -486 -37 -501 -8 -8 -17
-14 -21 -14 -4 0 -118 204 -254 454 -136 249 -331 605 -434 790 l-186 336 -48
0 -49 0 186 -332 c201 -360 634 -1150 677 -1236 27 -54 27 -72 -1 -72 -17 0
-719 393 -739 414 -7 6 -40 169 -75 361 -140 785 -155 859 -167 863 -6 2 -12
-4 -12 -12 0 -9 47 -278 105 -597 58 -320 104 -584 101 -586 -2 -3 -237 125
-523 283 -786 436 -691 376 -740 469 -69 134 -84 108 157 285 l211 155 -40 3
c-38 3 -52 -5 -230 -137 l-189 -140 -45 15 -45 15 -6 97 c-9 127 -14 152 -33
152 -13 0 -14 -13 -9 -87 4 -49 9 -105 12 -125 5 -33 3 -39 -20 -49 -22 -10
-28 -9 -43 9 -10 12 -65 73 -123 137 l-105 115 -58 0 -58 0 152 -165z m8941
-440 l406 -411 -76 -81 -77 -81 -525 -198 c-289 -108 -581 -218 -649 -245 -69
-27 -126 -47 -128 -46 -1 2 101 309 226 682 l229 679 83 58 c46 31 89 56 95
55 6 -1 193 -187 416 -412z m-718 376 c4 -5 -4 -22 -17 -38 -13 -15 -88 -113
-167 -218 -79 -104 -192 -253 -250 -330 -228 -299 -351 -462 -583 -768 -161
-213 -246 -317 -256 -315 -20 4 -19 66 3 293 9 88 23 232 31 320 9 88 18 183
21 210 l6 51 227 152 c124 84 393 265 596 402 204 137 373 249 377 250 4 0 9
-4 12 -9z m-139 -768 l-230 -686 -150 -57 c-563 -214 -638 -240 -656 -235 -32
11 -69 -43 385 555 77 102 221 291 320 420 99 129 243 318 321 420 222 292
219 288 230 278 7 -6 -69 -244 -220 -695z m-7675 597 c0 -5 -4 -10 -10 -10 -5
0 -10 5 -10 10 0 6 5 10 10 10 6 0 10 -4 10 -10z m4610 -300 c61 -162 127
-335 145 -383 29 -76 32 -92 23 -120 -6 -18 -13 -35 -17 -39 -3 -4 -58 -3
-121 2 -63 5 -212 17 -330 25 -118 9 -218 20 -222 24 -5 4 -8 25 -9 46 -1 34
19 76 123 260 69 121 160 282 202 358 43 77 82 135 86 130 4 -4 58 -141 120
-303z m-984 -80 c125 -184 228 -342 228 -350 0 -72 -3 -79 -36 -85 -18 -3
-161 -25 -318 -50 l-285 -45 -34 34 -33 34 111 388 c62 214 115 397 118 408 3
10 9 14 13 10 4 -5 111 -160 236 -344z m-3766 250 c0 -5 -5 -10 -11 -10 -5 0
-7 5 -4 10 3 6 8 10 11 10 2 0 4 -4 4 -10z m75 -102 c26 -15 63 -96 307 -664
153 -356 277 -649 274 -651 -2 -3 -301 80 -663 182 l-658 187 -75 71 c-41 39
-76 74 -78 77 -1 3 129 163 289 355 160 193 325 392 366 442 l75 93 67 -37
c36 -20 79 -45 96 -55z m776 -263 c342 -190 624 -346 626 -349 2 -2 38 -193
80 -425 73 -395 76 -422 60 -438 -9 -9 -18 -15 -20 -12 -2 2 -77 87 -167 189
-166 187 -223 250 -863 963 -305 338 -369 417 -342 417 2 0 284 -155 626 -345z
m4859 293 c0 -2 13 -102 30 -223 16 -121 41 -307 56 -412 l26 -193 -23 -32
c-12 -18 -23 -34 -24 -35 0 -1 -145 45 -320 102 l-320 104 4 42 c4 49 -21 19
326 398 197 214 245 263 245 249z m-5109 -523 c975 -1082 943 -1045 926 -1062
-13 -13 -30 -11 -153 25 -247 71 -669 195 -672 197 -4 3 -572 1325 -572 1331
0 26 89 -67 471 -491z m2307 -9 c154 -141 173 -163 169 -185 -15 -72 -15 -72
-213 -155 -104 -43 -235 -98 -292 -122 l-102 -43 -24 37 -24 37 18 330 c11
182 19 366 20 411 0 44 3 83 6 87 4 3 66 -49 138 -116 72 -67 209 -194 304
-281z m3802 81 c0 -6 -69 -707 -76 -770 -6 -57 -7 -59 -49 -79 l-44 -21 -223
133 c-123 73 -246 148 -275 166 l-52 33 17 42 c17 39 46 61 353 270 305 207
349 236 349 226z m2240 -167 c0 -8 -81 -77 -400 -341 -96 -80 -292 -241 -435
-359 -143 -118 -372 -309 -509 -423 -217 -181 -252 -206 -262 -192 -14 19 -22
-6 139 465 l124 365 274 104 c151 57 450 170 664 251 215 81 393 146 398 143
4 -2 7 -8 7 -13z m-4363 -45 l432 -35 439 -143 438 -143 375 -226 374 -227
330 -307 330 -307 228 -385 229 -384 150 -407 149 -406 39 -435 38 -436 -48
-429 -47 -430 -151 -395 -150 -395 -221 -360 -220 -360 -294 -287 -294 -287
-349 -227 -349 -227 -391 -143 -392 -142 -404 -56 -404 -57 -414 30 -415 29
-404 111 -404 112 -357 200 -356 199 -321 268 -322 267 -250 347 -251 347
-171 381 -171 381 -70 352 c-93 472 -97 519 -78 1062 8 242 14 303 31 365 11
41 42 170 69 285 97 425 109 454 396 1011 l124 240 302 349 303 348 355 246
355 245 415 174 415 175 435 72 c239 40 453 73 475 74 22 0 234 -15 472 -34z
m-2712 -203 c321 -182 352 -202 373 -239 l23 -41 -276 -198 -276 -197 -29 29
c-25 25 -32 45 -50 144 -20 117 -34 194 -93 518 -18 100 -31 182 -28 182 4 0
164 -89 356 -198z m6919 -208 c-124 -203 -288 -470 -365 -594 -76 -124 -144
-234 -153 -245 -12 -17 -44 -24 -213 -46 -109 -15 -292 -39 -406 -55 -204 -27
-235 -27 -243 2 -2 5 90 86 203 179 1001 827 1389 1143 1396 1136 4 -4 -94
-174 -219 -377z m-8992 -63 c249 -71 545 -155 658 -187 113 -31 210 -62 217
-68 9 -8 292 -648 333 -752 6 -14 4 -28 -4 -40 -12 -16 -43 4 -352 223 -366
259 -911 641 -1171 822 -155 107 -182 131 -148 131 8 0 219 -58 467 -129z
m-472 2 c124 -82 757 -523 1040 -723 91 -65 258 -183 372 -264 148 -105 206
-151 202 -161 -4 -8 -11 -15 -18 -16 -76 -5 -828 39 -837 49 -8 9 -324 439
-612 834 -119 163 -217 302 -217 307 0 18 12 13 70 -26z m8240 14 c0 -2 -59
-176 -130 -388 -117 -343 -134 -387 -162 -411 -18 -16 -36 -28 -40 -28 -4 0
-107 99 -230 219 l-224 220 5 48 6 48 85 34 c116 46 673 258 683 260 4 0 7 0
7 -2z m-6435 -399 c323 -95 373 -112 392 -136 13 -15 23 -31 23 -35 0 -5 -97
-121 -216 -258 l-216 -249 -36 21 c-35 19 -45 39 -197 390 -88 203 -162 374
-164 380 -2 7 5 9 20 4 13 -5 191 -57 394 -117z m6891 -799 c-212 -339 -234
-367 -282 -369 -9 0 -229 335 -341 520 l-21 35 25 29 c27 32 45 36 393 82 74
10 203 27 285 39 83 11 151 18 153 14 1 -3 -94 -161 -212 -350z m-7454 6 c147
-8 286 -15 308 -15 32 0 48 -7 75 -32 l35 -33 -144 -270 c-85 -158 -152 -272
-163 -276 -10 -4 -32 -8 -50 -8 -30 -1 -42 13 -260 309 -125 171 -234 320
-242 331 -14 20 -14 20 80 14 52 -3 214 -12 361 -20z m7618 -565 c113 -10 266
-24 340 -31 74 -7 143 -15 152 -18 14 -5 -46 -70 -270 -294 -270 -270 -289
-287 -326 -290 l-39 -2 -103 300 c-57 165 -103 305 -103 312 -2 23 59 50 103
46 22 -2 133 -12 246 -23z m-7627 -305 l28 -35 -76 -297 c-41 -163 -75 -298
-75 -300 0 -1 -17 -3 -38 -3 -34 0 -50 10 -133 83 -52 45 -190 165 -308 267
-175 151 -210 185 -195 191 10 4 78 17 149 29 72 12 227 39 345 60 274 49 268
48 303 5z m7994 -651 c199 -65 362 -122 363 -125 0 -4 -151 -102 -336 -219
-327 -207 -336 -211 -366 -199 -16 6 -35 22 -43 33 -7 12 -20 91 -29 176 -9
85 -24 215 -32 288 -9 74 -14 136 -12 138 10 9 74 33 83 30 6 -2 173 -56 372
-122z m-8180 -195 l30 -10 -4 -182 c-3 -100 -8 -245 -11 -322 l-7 -139 -35 -7
c-31 -7 -55 4 -240 102 -113 60 -271 144 -352 187 -81 42 -148 79 -148 82 0 3
19 13 43 22 23 9 181 75 352 147 171 72 317 130 326 131 9 0 30 -5 46 -11z
m8187 -758 c171 -105 319 -196 328 -203 16 -11 -32 -31 -357 -146 -352 -126
-377 -133 -410 -122 -41 14 -41 4 -16 190 11 80 27 207 37 283 l17 139 36 23
c20 13 40 24 45 24 5 1 149 -84 320 -188z m-8145 -163 c49 -246 111 -571 109
-573 -2 -1 -16 -9 -33 -17 -29 -14 -47 -10 -395 86 -393 110 -397 111 -390
118 3 3 124 90 270 193 146 104 283 201 304 217 29 20 52 28 82 28 l43 0 10
-52z m7756 -576 c117 -108 485 -467 485 -473 0 -4 -24 -9 -52 -13 -29 -3 -205
-24 -390 -46 -319 -39 -339 -40 -363 -24 -14 9 -25 22 -25 29 0 7 39 120 86
251 47 132 92 257 100 279 8 22 16 45 19 52 3 8 17 10 42 6 27 -4 55 -21 98
-61z m-7454 -486 l119 -269 -22 -36 c-12 -20 -22 -37 -23 -39 -2 -3 -568 27
-687 36 l-86 7 246 281 c136 155 256 284 267 287 63 15 59 20 186 -267z m7081
-274 c20 -20 411 -623 406 -627 -2 -1 -176 15 -388 37 -351 35 -387 41 -408
60 -12 12 -20 28 -17 36 3 7 78 128 167 268 162 254 162 255 193 248 16 -3 37
-13 47 -22z m-7487 -73 c454 -20 495 -25 495 -59 0 -3 -46 -29 -103 -59 -212
-111 -896 -487 -1326 -728 -111 -63 -205 -112 -208 -109 -3 3 -3 11 0 18 5 13
616 722 754 875 72 80 76 83 111 78 21 -3 145 -10 277 -16z m549 -144 c4 -13
-201 -406 -340 -651 -21 -37 -29 -42 -71 -49 -27 -3 -307 -49 -623 -101 -316
-52 -581 -96 -589 -97 -27 -4 -20 18 12 37 332 190 1577 874 1593 875 7 1 15
-6 18 -14z m300 -266 l179 -240 -26 -26 c-24 -24 -52 -30 -399 -89 -205 -34
-374 -61 -376 -59 -2 1 77 149 175 329 l177 326 46 0 45 -1 179 -240z m6621
-129 c99 -10 240 -24 314 -31 l133 -12 56 -86 c328 -507 616 -959 620 -973 9
-34 -20 -18 -156 87 -337 258 -574 439 -932 708 -212 160 -389 293 -393 297
-4 4 -5 15 -1 24 8 21 38 20 359 -14z m-467 -108 c20 -37 254 -683 250 -687
-4 -4 -452 138 -658 208 -63 21 -65 23 -72 62 l-6 40 211 212 211 212 27 -15
c16 -8 32 -22 37 -32z m1198 -819 c184 -140 334 -260 334 -264 0 -5 -6 -9 -14
-9 -12 0 -444 136 -1001 315 l-230 74 -70 193 c-38 106 -97 267 -131 358 -96
256 -116 262 373 -106 223 -167 555 -420 739 -561z m-7206 722 c7 -9 11 -17 9
-18 -27 -20 -714 -625 -934 -822 -99 -89 -236 -212 -304 -274 -69 -61 -129
-111 -134 -111 -5 0 -7 9 -4 20 6 23 548 1044 570 1075 12 15 79 29 383 81
203 34 376 63 385 63 9 1 22 -6 29 -14z m411 -265 c122 -107 227 -198 232
-201 5 -4 3 -18 -6 -35 -13 -26 -56 -46 -364 -171 -210 -85 -349 -137 -351
-130 -1 7 42 166 97 354 80 278 103 347 122 363 13 11 29 19 36 17 6 -1 111
-90 234 -197z m-332 176 c9 -11 -12 -95 -92 -377 l-103 -363 -579 -233 c-318
-128 -584 -233 -592 -233 -23 0 -14 17 25 52 21 18 186 166 367 328 386 346
947 839 956 840 4 0 12 -6 18 -14z m-1092 -387 c-101 -189 -228 -429 -283
-533 l-99 -189 -74 -49 c-40 -26 -79 -48 -85 -48 -6 1 -41 41 -78 89 -56 74
-65 90 -53 102 7 8 16 24 19 35 8 28 -30 40 -55 18 -16 -14 -35 9 -244 277
-125 161 -228 299 -229 306 -2 27 97 131 134 142 19 5 244 44 500 86 256 42
524 87 595 98 72 12 131 19 133 16 1 -4 -80 -161 -181 -350z m6943 -40 c190
-61 346 -112 347 -113 1 -1 46 -121 99 -267 223 -614 324 -903 316 -911 -5 -5
-95 94 -208 229 -236 284 -700 833 -867 1026 -109 127 -118 139 -101 151 12 9
26 11 43 5 15 -5 181 -58 371 -120z m-588 46 l45 -16 16 -132 c10 -73 28 -215
42 -317 36 -267 37 -280 32 -280 -2 0 -105 59 -228 131 -123 72 -268 156 -321
187 -90 53 -118 80 -118 117 0 7 59 51 132 97 115 73 352 225 354 227 0 1 21
-6 46 -14z m299 -222 c106 -126 268 -316 359 -423 300 -354 620 -741 620 -750
0 -6 -4 -10 -8 -10 -5 0 -253 143 -552 318 -492 287 -544 320 -551 347 -4 17
-17 104 -29 195 -12 91 -32 246 -45 345 -23 173 -22 205 5 205 4 0 95 -102
201 -227z m-4995 100 c-3 -7 -112 -161 -243 -341 -131 -180 -360 -498 -511
-707 -150 -209 -280 -386 -287 -394 -40 -41 -31 -6 202 834 52 187 98 344 103
349 5 5 168 73 362 152 262 105 356 139 366 131 7 -5 11 -16 8 -24z m443 -143
c141 -77 262 -144 270 -149 11 -7 11 -15 2 -42 -10 -29 -55 -63 -314 -242
l-302 -207 -3 52 c-1 29 6 194 16 366 18 301 20 313 42 337 13 14 26 25 28 25
3 0 120 -63 261 -140z m-350 96 c9 -10 6 -106 -9 -386 -20 -362 -21 -374 -43
-389 -12 -9 -213 -146 -447 -305 -234 -159 -456 -311 -494 -337 -46 -32 -73
-46 -80 -39 -6 6 -3 17 11 32 11 13 100 136 198 273 99 138 291 405 429 595
137 190 286 395 330 457 45 62 84 112 87 113 4 0 12 -6 18 -14z m6188 -195
l591 -188 59 -63 c32 -34 59 -66 61 -70 2 -6 -60 -69 -368 -365 -80 -77 -197
-191 -261 -253 -63 -61 -122 -112 -130 -111 -7 0 -45 19 -83 42 l-69 42 -50
140 c-27 77 -115 320 -194 540 -80 220 -151 417 -159 438 -10 28 -10 37 -1 37
7 0 278 -85 604 -189z m-2277 -106 c0 -11 -7 -87 -14 -170 -8 -82 -22 -238
-32 -345 -9 -107 -18 -197 -20 -198 -1 -2 -127 112 -278 253 -250 233 -276
261 -276 290 l0 32 288 105 287 106 22 -26 c13 -15 23 -36 23 -47z m-2793
-117 c292 -86 288 -84 296 -149 1 -10 -72 -97 -184 -216 -102 -109 -213 -227
-246 -263 -34 -36 -64 -63 -67 -60 -3 3 -32 165 -64 359 -56 336 -58 356 -43
382 9 16 20 29 25 29 5 0 132 -37 283 -82z m1978 -108 c15 -29 13 -39 -96
-378 -62 -191 -114 -349 -117 -352 -3 -3 -6 0 -9 5 -2 6 -96 142 -208 304
-195 280 -205 296 -199 330 4 20 7 37 8 38 2 2 443 64 501 70 28 3 52 7 54 9
2 2 15 4 27 4 16 0 29 -10 39 -30z m-1131 -40 c149 -12 276 -23 282 -25 6 -2
14 -17 16 -35 4 -26 -24 -79 -177 -342 -99 -171 -185 -310 -189 -310 -5 1 -71
151 -147 334 l-138 333 31 33 c18 17 36 32 42 32 5 0 131 -9 280 -20z m3986
-800 c0 -5 -4 -10 -10 -10 -5 0 -10 5 -10 10 0 6 5 10 10 10 6 0 10 -4 10 -10z"/>
<path d="M3540 7305 l0 -75 105 0 105 0 0 -545 c0 -358 4 -562 11 -597 36
-175 145 -282 339 -335 93 -26 397 -25 489 0 176 50 273 135 323 287 22 63 22
80 26 628 l3 562 105 0 104 0 0 75 0 75 -320 0 -320 0 0 -75 0 -75 115 0 116
0 -3 -558 -3 -557 -33 -68 c-38 -77 -82 -115 -165 -144 -74 -26 -320 -26 -393
0 -105 36 -173 125 -194 248 -6 38 -10 271 -10 572 l0 507 120 0 121 0 -3 73
-3 72 -317 3 -318 2 0 -75z"/>
<path d="M5464 7365 c-3 -7 -4 -43 -2 -81 l3 -69 140 -8 c77 -5 150 -10 163
-13 l22 -4 0 -640 c0 -352 -3 -640 -6 -640 -11 0 -319 -52 -322 -55 -2 -2 36
-110 43 -122 1 -2 53 9 116 23 157 34 342 41 571 20 219 -20 305 -20 404 -1
244 47 384 203 384 430 0 204 -107 345 -327 430 l-72 28 42 27 c59 38 139 126
168 185 20 42 24 64 24 145 0 78 -4 102 -22 135 -48 91 -168 172 -303 206 -65
16 -266 16 -419 0 -135 -14 -359 -13 -495 3 -82 9 -109 10 -112 1z m1005 -160
c133 -46 187 -174 127 -300 -63 -133 -206 -193 -476 -198 l-135 -2 0 245 0
244 37 8 c140 29 370 31 447 3z m-138 -655 c282 -23 426 -125 446 -314 10 -95
-40 -215 -111 -269 -108 -82 -179 -94 -438 -73 -112 9 -213 19 -225 22 l-23 4
0 314 c0 172 3 316 7 319 9 10 210 8 344 -3z"/>
<path d="M3373 5360 c-27 -11 -38 -49 -27 -93 14 -58 16 -907 3 -950 -11 -33
-10 -41 8 -65 40 -54 153 -52 189 3 15 23 15 27 0 50 -14 21 -16 76 -16 463 0
377 2 445 16 477 20 49 11 81 -29 105 -34 21 -105 26 -144 10z"/>
<path d="M2990 5349 c-13 -5 -33 -17 -42 -26 -19 -17 -24 -68 -8 -78 14 -9 13
-714 -1 -752 -27 -73 -142 -146 -249 -158 -73 -8 -121 6 -155 46 l-25 31 0
437 c0 428 0 439 -21 465 -17 21 -29 26 -65 26 -56 0 -101 -37 -88 -73 4 -12
10 -225 13 -474 l6 -451 30 -44 c88 -124 322 -143 523 -43 91 46 146 95 176
158 l25 52 2 428 c2 364 0 431 -13 443 -19 19 -77 26 -108 13z"/>
<path d="M4571 5307 c-42 -21 -64 -62 -69 -126 -4 -50 -1 -62 17 -80 42 -42
122 -18 155 47 54 109 -9 208 -103 159z"/>
<path d="M3862 5208 c-27 -13 -38 -49 -23 -76 14 -27 14 -139 0 -148 -6 -3
-41 -6 -78 -6 -75 0 -98 -9 -111 -43 -23 -60 38 -120 98 -97 15 6 43 12 62 14
l35 3 5 -297 5 -298 27 -26 c42 -42 110 -44 192 -6 79 37 134 74 205 138 64
58 111 119 111 146 0 32 -45 68 -85 68 -49 0 -72 -14 -80 -49 -7 -33 -79 -111
-144 -156 -69 -47 -71 -40 -71 262 0 139 1 253 3 253 1 0 39 7 85 15 46 8 96
12 112 9 37 -8 80 32 80 74 0 38 -40 77 -72 69 -91 -23 -198 -43 -203 -39 -11
11 -4 101 9 127 18 34 11 54 -21 66 -32 12 -112 10 -141 -3z"/>
<path d="M6992 5208 c-27 -13 -38 -49 -23 -76 14 -27 14 -139 0 -148 -6 -3
-41 -6 -78 -6 -75 0 -98 -9 -111 -43 -23 -60 38 -120 98 -97 15 6 43 12 62 14
l35 3 5 -297 5 -298 27 -26 c42 -42 110 -44 192 -6 79 37 134 74 205 138 64
58 111 119 111 146 0 32 -45 68 -85 68 -49 0 -72 -14 -80 -49 -7 -33 -79 -111
-144 -156 -69 -47 -71 -40 -71 262 0 139 1 253 3 253 1 0 39 7 85 15 46 8 96
12 112 9 37 -8 80 32 80 74 0 38 -40 77 -72 69 -91 -23 -198 -43 -203 -39 -11
11 -4 101 9 127 18 34 11 54 -21 66 -32 12 -112 10 -141 -3z"/>
<path d="M4927 5010 c-16 -5 -35 -14 -43 -21 -16 -13 -19 -80 -4 -95 12 -12 8
-535 -4 -594 -11 -54 16 -82 85 -87 33 -2 64 1 79 9 l25 14 0 229 0 229 70 59
c89 75 121 92 141 76 11 -9 14 -56 14 -252 0 -208 -2 -243 -16 -258 -24 -26
-21 -69 6 -91 26 -21 95 -24 134 -7 40 18 46 57 46 275 l0 203 72 56 c89 70
139 97 159 85 11 -8 15 -55 17 -261 2 -167 -1 -256 -8 -263 -19 -19 -12 -74
12 -90 47 -33 158 -10 179 38 10 20 9 30 -5 50 -14 22 -16 65 -16 344 0 312 0
319 -21 338 -49 44 -164 5 -315 -110 l-71 -53 -6 65 c-4 52 -10 69 -31 90 -50
51 -127 30 -261 -71 -37 -29 -77 -59 -88 -67 -19 -14 -19 -12 -12 56 6 62 4
71 -13 88 -24 21 -85 29 -125 16z"/>
<path d="M6391 4999 c-29 -5 -81 -21 -115 -35 -33 -14 -81 -33 -106 -43 -27
-10 -51 -27 -60 -44 -13 -24 -13 -30 0 -54 36 -64 100 -64 164 0 35 36 109 67
158 67 41 0 60 -35 56 -106 l-3 -57 -65 -18 c-223 -63 -402 -223 -416 -372
-10 -101 54 -153 176 -145 86 7 164 44 241 118 l62 58 -7 -69 c-6 -69 -6 -70
21 -80 16 -6 52 -9 82 -6 60 4 99 36 84 66 -4 9 -10 158 -13 331 -4 284 -7
319 -23 344 -35 52 -107 66 -236 45z m70 -503 c-30 -48 -115 -124 -164 -146
-50 -23 -110 -26 -127 -5 -42 51 101 199 244 251 l61 22 3 -44 c2 -32 -3 -55
-17 -78z"/>
<path d="M7909 4986 c-145 -39 -275 -191 -324 -381 -22 -85 -20 -239 4 -290
38 -82 103 -116 220 -116 131 0 245 53 341 158 58 64 69 93 46 128 -21 32 -72
41 -119 22 -29 -13 -38 -23 -47 -56 -18 -66 -107 -121 -198 -121 -69 0 -95 29
-100 113 -6 95 5 113 75 127 202 39 338 87 381 133 53 56 36 157 -37 228 -68
65 -142 82 -242 55z m131 -146 c11 -11 23 -32 26 -46 10 -39 -19 -58 -124 -83
-144 -33 -162 -35 -162 -19 0 28 76 123 115 145 51 29 117 31 145 3z"/>
<path d="M4533 4979 c-42 -12 -57 -40 -48 -93 12 -71 17 -538 5 -550 -5 -5
-10 -27 -10 -47 0 -71 71 -98 157 -60 46 22 60 49 44 90 -13 30 -10 527 3 572
6 21 2 33 -21 58 -31 35 -78 46 -130 30z"/>
<path d="M2800 3840 c-25 -6 -82 -28 -128 -50 -46 -22 -87 -40 -91 -40 -4 0
-8 14 -8 31 0 19 -7 37 -18 45 -39 29 -144 8 -159 -31 -3 -9 -3 -42 0 -74 6
-53 4 -60 -20 -84 -19 -19 -26 -36 -26 -66 0 -38 19 -71 41 -71 11 0 6 -654
-6 -711 -6 -32 -4 -39 20 -58 35 -27 138 -30 174 -5 20 14 22 22 16 53 -4 20
-9 127 -12 237 l-4 202 73 17 c224 54 399 171 469 312 32 66 34 178 3 220 -39
52 -99 77 -194 79 -47 2 -105 -1 -130 -6z m137 -155 c50 -33 41 -103 -21 -172
-63 -70 -156 -114 -308 -147 l-28 -6 0 117 0 118 43 26 c136 85 247 108 314
64z"/>
<path d="M5804 3840 c-12 -5 -25 -14 -29 -21 -4 -6 -7 -230 -6 -498 2 -425 0
-490 -14 -517 -18 -37 -8 -76 24 -93 29 -16 120 -13 266 9 72 11 162 20 201
20 85 0 106 16 108 81 1 67 -56 97 -131 68 -30 -12 -199 -38 -245 -39 l-28 0
0 436 c0 288 4 442 11 455 15 29 -5 83 -37 98 -29 13 -89 14 -120 1z"/>
<path d="M6581 3807 c-42 -21 -64 -62 -69 -126 -4 -50 -1 -62 17 -80 42 -42
122 -18 155 47 54 109 -9 208 -103 159z"/>
<path d="M4832 3708 c-27 -13 -38 -49 -23 -76 14 -27 14 -139 0 -148 -6 -3
-41 -6 -78 -6 -75 0 -98 -9 -111 -43 -23 -60 38 -120 98 -97 15 6 43 12 62 14
l35 3 5 -297 5 -298 27 -26 c42 -42 110 -44 192 -6 79 37 134 74 205 138 64
58 111 119 111 146 0 32 -45 68 -85 68 -49 0 -72 -14 -80 -49 -7 -33 -79 -111
-144 -156 -69 -47 -71 -40 -71 262 0 139 1 253 3 253 1 0 39 7 85 15 46 8 96
12 112 9 37 -8 80 32 80 74 0 38 -40 77 -72 69 -91 -23 -198 -43 -203 -39 -11
11 -4 101 9 127 18 34 11 54 -21 66 -32 12 -112 10 -141 -3z"/>
<path d="M7822 3708 c-27 -13 -38 -49 -23 -76 14 -27 14 -139 0 -148 -6 -3
-41 -6 -78 -6 -75 0 -98 -9 -111 -43 -23 -60 38 -120 98 -97 15 6 43 12 62 14
l35 3 5 -297 5 -298 27 -26 c42 -42 110 -44 192 -6 79 37 134 74 205 138 64
58 111 119 111 146 0 32 -45 68 -85 68 -49 0 -72 -14 -80 -49 -7 -33 -79 -111
-144 -156 -69 -47 -71 -40 -71 262 0 139 1 253 3 253 1 0 39 7 85 15 46 8 96
12 112 9 37 -8 80 32 80 74 0 38 -40 77 -72 69 -91 -23 -198 -43 -203 -39 -11
11 -4 101 9 127 18 34 11 54 -21 66 -32 12 -112 10 -141 -3z"/>
<path d="M4203 3505 c-133 -29 -269 -120 -312 -208 -45 -94 -19 -200 59 -239
53 -27 109 -22 244 22 67 22 130 40 139 40 53 0 73 -80 37 -150 -36 -70 -157
-140 -243 -140 -63 0 -87 13 -87 49 0 37 -23 55 -67 54 -51 -2 -88 -40 -88
-94 0 -34 6 -46 37 -74 65 -60 167 -78 285 -50 142 33 271 122 317 218 51 103
47 194 -11 257 -65 72 -122 76 -304 18 -93 -29 -136 -39 -147 -32 -70 45 17
169 143 203 60 16 150 14 165 -4 31 -38 110 -5 110 46 0 42 -36 74 -99 88 -65
14 -99 13 -178 -4z"/>
<path d="M7193 3505 c-133 -29 -269 -120 -312 -208 -45 -94 -19 -200 59 -239
53 -27 109 -22 244 22 67 22 130 40 139 40 53 0 73 -80 37 -150 -36 -70 -157
-140 -243 -140 -63 0 -87 13 -87 49 0 37 -23 55 -67 54 -51 -2 -88 -40 -88
-94 0 -34 6 -46 37 -74 65 -60 167 -78 285 -50 142 33 271 122 317 218 51 103
47 194 -11 257 -65 72 -122 76 -304 18 -93 -29 -136 -39 -147 -32 -70 45 17
169 143 203 60 16 150 14 165 -4 31 -38 110 -5 110 46 0 42 -36 74 -99 88 -65
14 -99 13 -178 -4z"/>
<path d="M3359 3476 c-71 -29 -102 -51 -162 -115 -86 -92 -137 -234 -137 -381
0 -103 18 -162 66 -218 47 -56 104 -76 196 -70 90 6 144 29 224 96 193 160
248 445 123 629 -57 83 -190 109 -310 59z m154 -127 c34 -26 50 -84 49 -184
-1 -97 -19 -162 -67 -231 -44 -64 -100 -104 -154 -111 -74 -10 -111 48 -111
170 0 127 46 251 119 325 55 56 118 68 164 31z"/>
<path d="M6543 3479 c-42 -12 -57 -40 -48 -93 12 -71 17 -538 5 -550 -5 -5
-10 -27 -10 -47 0 -71 71 -98 157 -60 46 22 60 49 44 90 -13 30 -10 527 3 572
6 21 2 33 -21 58 -31 35 -78 46 -130 30z"/>
</g>
</svg>
